<?xml version="1.0" encoding="utf-8"?>
<!-- Generator: Adobe Illustrator 19.2.1, SVG Export Plug-In . SVG Version: 6.00 Build 0)  -->
<svg version="1.1" id="Capa_1" xmlns="http://www.w3.org/2000/svg" xmlns:xlink="http://www.w3.org/1999/xlink" x="0px" y="0px"
	 viewBox="0 0 182 75" style="enable-background:new 0 0 182 75;" xml:space="preserve">
<style type="text/css">
	.st0{fill:#E0CF9C;fill-opacity:0.8;}
</style>
<g transform="matrix( 1, 0, 0, 1, 93,37.95) ">
	<g>
		<g id="Layer0_0_FILL">
			<path class="st0" d="M-80.1,12.6c-10.2,1.6-14.1,5-11.7,10.4c2.4,5.1,5.7,9.6,10,13.6c95.4,1.2,152.5,1.2,171.3,0
				c-0.6-3.5-3.8-6.4-9.4-8.8C74.4,25.2,68.7,24,62.9,24c-5.7,0-10.2,0.3-13.6,0.9c3.1-8.6-0.7-13.5-11.5-14.7
				C27,9,18.9,6.7,13.3,3.3C7.8-0.1,2.7-1.1-2.1,0.5c5.2-12.9,0.7-23.4-13.6-31.6c-14.2-8.3-24.1-8.2-29.7,0.2
				c-5.5,8.4-10.2,17.3-13.9,26.9C-62.9,5.4-69.9,11-80.1,12.6z"/>
		</g>
	</g>
</g>
</svg>
